<?xml version="1.0" encoding="UTF-8" standalone="no"?>
<!DOCTYPE svg PUBLIC "-//W3C//DTD SVG 1.1//EN" "http://www.w3.org/Graphics/SVG/1.1/DTD/svg11.dtd">
<svg width="100%" height="100%" viewBox="0 0 379 213" version="1.1" xmlns="http://www.w3.org/2000/svg" xmlns:xlink="http://www.w3.org/1999/xlink" xml:space="preserve" xmlns:serif="http://www.serif.com/" style="fill-rule:evenodd;clip-rule:evenodd;stroke-linecap:round;stroke-linejoin:round;stroke-miterlimit:1.5;">
    <g transform="matrix(0.805708,0,0,0.805708,-882.903,-1191.01)">
        <path d="M1224.38,1582.55C1264.65,1582.55 1297.35,1615.24 1297.35,1655.52C1297.35,1695.79 1264.65,1728.48 1224.38,1728.48C1184.11,1728.48 1151.42,1695.79 1151.42,1655.52C1151.42,1615.24 1184.11,1582.55 1224.38,1582.55ZM1437.63,1582.55C1477.9,1582.55 1510.6,1615.24 1510.6,1655.52C1510.6,1695.79 1477.9,1728.48 1437.63,1728.48C1397.36,1728.48 1364.66,1695.79 1364.66,1655.52C1364.66,1615.24 1397.36,1582.55 1437.63,1582.55ZM1296.65,1638.33L1295.93,1638.35C1305.59,1622.32 1318.1,1614.38 1330.71,1614.24C1343.31,1614.11 1356.01,1621.79 1366.02,1637C1342.28,1606.54 1319.12,1605.38 1296.65,1638.33Z" style="fill:none;stroke:rgb(250,254,255);stroke-width:27.08px;"/>
        <path d="M1169.33,1600.29L1178.66,1600.29L1178.66,1594.16L1156.56,1594.16C1155.98,1594.11 1155.39,1594.09 1154.81,1594.09L1115.93,1594.09C1104.83,1594.09 1095.81,1603.11 1095.81,1614.21C1095.81,1625.32 1104.83,1634.34 1115.93,1634.34L1154.81,1634.34C1165.91,1634.34 1174.93,1625.32 1174.93,1614.21C1174.93,1608.81 1172.8,1603.91 1169.33,1600.29Z" style="fill:white;"/>
        <path d="M1508.77,1594.16C1509.34,1594.11 1509.93,1594.09 1510.52,1594.09L1545.21,1594.09C1556.32,1594.09 1565.34,1603.11 1565.34,1614.21C1565.34,1625.32 1556.32,1634.34 1545.21,1634.34L1510.52,1634.34C1499.41,1634.34 1490.39,1625.32 1490.39,1614.21C1490.39,1608.81 1492.52,1603.91 1495.99,1600.29L1486.67,1600.29L1486.67,1594.16L1508.77,1594.16Z" style="fill:white;"/>
    </g>
    <g transform="matrix(0.805708,0,0,0.805708,-882.903,-1191.01)">
        <path d="M1219.08,1535.87C1219.08,1535.87 1265.27,1491.76 1328.75,1491.76C1392.22,1491.76 1441.83,1534.83 1441.83,1534.83" style="fill:none;stroke:rgb(243,144,174);stroke-width:27.08px;"/>
    </g>
</svg>
